<svg width="352" height="120" viewBox="0 0 352 120" fill="none" xmlns="http://www.w3.org/2000/svg">
<g clip-path="url(#clip0_854_3596)">
<path fill-rule="evenodd" clip-rule="evenodd" d="M90.9701 54.2936L91.2321 58.7959L86.3363 56.8312L90.9714 54.2936H90.9701ZM107.246 30.4681C107.246 30.4681 110.899 43.338 91.982 35.6387C91.982 35.6387 100.836 28.6678 107.246 30.4681ZM93.3681 45.7755C99.2016 52.3956 98.2518 63.4273 98.2518 63.4273C96.7148 61.0882 92.5984 59.3234 92.5984 59.3234C94.4068 51.4685 93.3681 45.7755 93.3681 45.7755ZM106.843 54.3576L100.196 63.0956L99.8116 54.0699L106.843 54.3563V54.3576ZM106.283 57.9607L107.899 70.2352L100.706 64.6634L106.281 57.9607H106.283ZM116.021 57.3148C115.298 67.3754 108.152 74.2605 108.152 74.2605C110.957 64.5941 108.876 54.6667 108.876 54.6667L116.019 57.3148H116.021ZM62.1643 54.2923L61.9037 58.7946L66.7995 56.8299L62.1643 54.2923ZM50.1984 30.4681C50.1984 30.4681 43.1434 39.8721 61.4123 34.239C61.4123 34.239 57.4241 30.0671 50.1984 30.4681ZM59.7675 45.7742C53.9342 52.3942 54.884 63.426 54.884 63.426C56.4208 61.0869 60.536 59.322 60.536 59.322C58.7275 51.4672 59.7675 45.7742 59.7675 45.7742ZM46.2921 54.3563L52.939 63.0943L53.3239 54.0686L46.2921 54.355V54.3563ZM46.8517 57.9594L45.2344 70.2338L52.4272 64.6621L46.8517 57.9594ZM37.1133 57.3133C37.8366 67.3741 44.9818 74.2592 44.9818 74.2592C42.1784 64.5928 44.2584 54.6653 44.2584 54.6653L37.1133 57.3133ZM76.5679 23.4017C76.5679 23.4017 97.2306 0.806862 112.062 16.8709C121.909 -2.23677 130.777 35.1208 133.949 36.9057C119.542 33.5116 116.319 5.76195 89.5437 23.9319C115.991 11.3924 116.569 34.5054 122.644 40.2597C122.644 40.2597 115.295 36.7072 107.338 38.2523C107.338 38.2523 112.357 34.484 108.876 30.4681C108.876 30.4681 110.875 31.1387 112.863 34.239C108.315 9.43569 86.7346 52.8125 81.1552 29.0295C81.1552 29.0295 80.0251 31.8973 81.1552 34.5454C81.1552 34.5454 77.6324 31.6322 76.5679 24.4393C75.5033 31.6322 71.9792 34.5454 71.9792 34.5454C73.1106 31.8973 71.7075 28.1024 71.7075 28.1024C67.0641 43.5097 44.7839 7.31506 40.2362 32.1183C42.4977 28.9855 47.3362 29.0295 47.3362 29.0295C43.8544 33.0454 45.7994 38.2523 45.7994 38.2523C37.8408 36.7085 30.4936 40.2597 30.4936 40.2597C36.5688 34.5054 37.1447 11.3924 63.5933 23.9319C36.8171 5.76195 33.5933 33.5116 19.1884 36.9057C22.3604 35.1195 31.2253 -2.23677 41.0755 16.8709C55.9076 0.806862 76.5692 23.4017 76.5692 23.4017H76.5679ZM91.0806 10.4266C91.0806 10.4266 82.6743 9.36769 76.5679 15.4576C70.4614 9.36769 62.0551 10.4266 62.0551 10.4266C67.2321 5.28375 85.9036 5.28375 91.0806 10.4266ZM139.967 61.7862C146.778 52.6766 140.886 47.6469 137.506 45.6996C142.226 45.6117 145.894 43.1754 147.168 38.7571C131.792 37.4771 136.938 -7.43027 110.899 8.34336C109.092 1.35432 97.5256 4.95873 95.743 5.55948C85.6006 -1.85316 67.5282 -1.85316 57.3871 5.55948C55.606 4.95873 44.0402 1.35432 42.2316 8.34336C16.1953 -7.42761 21.3407 37.4797 5.9668 38.7599C7.24023 43.178 10.909 45.6144 15.626 45.7022C12.2493 47.6496 6.35715 52.6793 13.1652 61.789C-26.5951 139.404 179.729 139.404 139.967 61.789V61.7862ZM134.649 66.451C134.649 66.451 139.443 86.3977 120.633 99.1065C120.633 99.1065 124.521 87.7218 118.551 79.0717C118.551 79.0717 122.078 94.9573 100.916 110.14C100.916 110.14 107.971 103.607 107.246 93.0166C101.932 119.386 51.2003 119.386 45.8854 93.0166C45.162 103.607 52.2157 110.14 52.2157 110.14C31.0519 94.9573 34.5801 79.0717 34.5801 79.0717C28.6114 87.7218 32.5 99.1065 32.5 99.1065C13.6892 86.3964 18.4841 66.451 18.4841 66.451C21.6493 72.1879 26.8945 73.5998 26.8945 73.5998C3.97953 45.8114 28.8094 44.0972 57.824 42.0459C53.2121 39.7947 49.3685 40.3262 49.3685 40.3262C55.269 37.5543 65.3225 33.6102 70.6661 38.8251C70.6661 38.8251 64.7863 39.0009 63.521 44.4727C63.6957 44.6287 80.1151 55.5058 73.0179 55.5058L70.2594 54.0939L68.2244 55.6376C68.2244 55.6376 65.3294 53.4305 61.6225 51.9307C61.6225 51.9307 60.6275 45.4438 61.9842 41.5597C61.9842 41.5597 57.6424 43.2367 55.2007 50.2977C55.2007 50.2977 45.072 46.4136 30.8732 51.8854C30.8732 51.8854 25.8995 68.5662 47.7854 83.9243C48.1361 53.3946 104.997 53.3946 105.349 83.9243C127.235 68.5675 122.26 51.8854 122.26 51.8854C108.061 46.4136 97.9323 50.2977 97.9323 50.2977C95.4906 43.2367 91.1488 41.5597 91.1488 41.5597C92.5055 45.4438 91.5106 51.9307 91.5106 51.9307C87.8021 53.4305 84.9087 55.6376 84.9087 55.6376L82.8736 54.0939L80.1151 55.5058C73.0179 55.5058 89.4373 44.6287 89.6105 44.4727C88.344 39.0009 82.4654 38.8251 82.4654 38.8251C87.8103 33.6102 97.864 37.5543 103.764 40.3262C103.764 40.3262 99.921 39.796 95.3091 42.0459C124.323 44.0972 149.153 45.8114 126.239 73.5998C126.239 73.5998 131.485 72.1879 134.651 66.451H134.649Z" fill="#2D2825"/>
<path d="M165.795 61.408V13.8047H186.221C189.889 13.8047 192.958 14.3084 195.43 15.3156C197.917 16.3228 199.783 17.7329 201.027 19.546C202.286 21.359 202.916 23.4587 202.916 25.845C202.916 27.658 202.525 29.2774 201.744 30.703C200.963 32.1131 199.886 33.283 198.515 34.2128C197.144 35.1426 195.557 35.7934 193.755 36.1653V36.6302C195.733 36.7231 197.558 37.2422 199.233 38.1875C200.922 39.1327 202.278 40.4499 203.299 42.1389C204.319 43.8125 204.829 45.796 204.829 48.0893C204.829 50.6462 204.16 52.9318 202.821 54.9463C201.481 56.9452 199.543 58.5258 197.009 59.688C194.473 60.8347 191.395 61.408 187.776 61.408H165.795ZM177.635 52.1338H184.953C187.52 52.1338 189.41 51.6611 190.622 50.7159C191.85 49.7707 192.463 48.4535 192.463 46.7645C192.463 45.5403 192.169 44.4866 191.578 43.6033C190.989 42.7045 190.152 42.015 189.068 41.5346C187.983 41.0387 186.683 40.7908 185.169 40.7908H177.635V52.1338ZM177.635 33.376H184.188C185.48 33.376 186.628 33.1668 187.632 32.7484C188.637 32.3301 189.419 31.7257 189.977 30.9354C190.55 30.1451 190.838 29.1921 190.838 28.0764C190.838 26.4804 190.255 25.2252 189.092 24.3109C187.927 23.3967 186.357 22.9396 184.379 22.9396H177.635V33.376Z" fill="#2D2825"/>
<path d="M221.117 61.408H208.393L224.92 13.8047H240.682L257.209 61.408H244.485L232.981 25.7985H232.598L221.117 61.408ZM219.419 42.6735H246.016V51.4132H219.419V42.6735Z" fill="#2D2825"/>
<path d="M262.482 61.408V13.8047H282.717C286.385 13.8047 289.55 14.4478 292.212 15.734C294.891 17.0046 296.957 18.8331 298.407 21.2195C299.858 23.5904 300.584 26.4029 300.584 29.657C300.584 32.9576 299.842 35.7624 298.36 38.0713C296.876 40.3647 294.772 42.1157 292.045 43.3244C289.318 44.5176 286.089 45.1141 282.359 45.1141H269.562V36.0491H280.158C281.944 36.0491 283.434 35.8244 284.631 35.375C285.843 34.9101 286.759 34.2128 287.381 33.283C288.002 32.3378 288.314 31.1291 288.314 29.657C288.314 28.1849 288.002 26.9685 287.381 26.0077C286.759 25.0315 285.843 24.3032 284.631 23.8228C283.418 23.327 281.928 23.079 280.158 23.079H274.322V61.408H262.482ZM290.06 39.6518L302.258 61.408H289.342L277.384 39.6518H290.06Z" fill="#2D2825"/>
<path d="M307.078 61.408V13.8047H318.918V33.9339H319.564L335.756 13.8047H349.7L332.336 35.0496L350.011 61.408H335.852L323.654 42.6968L318.918 48.5077V61.408H307.078Z" fill="#2D2825"/>
<path d="M166 101V84H173.543C175.044 84 176.284 84.2047 177.26 84.6143C178.237 85.0182 178.963 85.5633 179.44 86.2494C179.919 86.9301 180.157 87.6855 180.157 88.5155C180.157 89.246 179.992 89.8492 179.662 90.3251C179.339 90.801 178.91 91.1773 178.376 91.454C177.85 91.7307 177.278 91.9354 176.66 92.0683V92.2343C177.32 92.2675 177.983 92.4501 178.651 92.7821C179.318 93.1141 179.877 93.5901 180.325 94.2098C180.775 94.8296 181 95.5878 181 96.4843C181 97.3365 180.754 98.1029 180.262 98.7836C179.77 99.4642 178.994 100.004 177.935 100.402C176.875 100.8 175.494 101 173.795 101H166ZM168.613 99.1737H173.795C175.502 99.1737 176.713 98.9136 177.428 98.3934C178.153 97.8677 178.513 97.2313 178.513 96.4843C178.513 95.9088 178.328 95.3775 177.956 94.8905C177.583 94.398 177.053 94.0051 176.365 93.7118C175.677 93.413 174.863 93.2635 173.921 93.2635H168.613V99.1737ZM168.613 91.4706H173.457C174.245 91.4706 174.954 91.3488 175.586 91.1053C176.225 90.8619 176.73 90.5188 177.102 90.0761C177.481 89.6334 177.671 89.1132 177.671 88.5155C177.671 87.7685 177.341 87.1348 176.681 86.6147C176.021 86.089 174.975 85.8262 173.543 85.8262H168.613V91.4706Z" fill="#CBB5A7"/>
<path d="M211 101V84H213.479V99.1737H223V101H211Z" fill="#CBB5A7"/>
<path d="M256 84V101H253V84H256Z" fill="#CBB5A7"/>
<path d="M303 84V101H300.636L289.64 87.6523H289.444V101H287V84H289.365L300.399 97.3807H300.597V84H303Z" fill="#CBB5A7"/>
<path d="M334 101V84H336.617V92.4335H336.871L346.581 84H350L340.923 91.6699L350 101H346.833L339.319 93.0976L336.617 95.4881V101H334Z" fill="#CBB5A7"/>
<path d="M56.6784 35C58.3259 35 59.6614 33.6569 59.6614 32C59.6614 30.3431 58.3259 29 56.6784 29C55.0309 29 53.6953 30.3431 53.6953 32C53.6953 33.6569 55.0309 35 56.6784 35Z" fill="#2D2825"/>
</g>
<defs>
<clipPath id="clip0_854_3596">
<rect width="352" height="120" fill="white"/>
</clipPath>
</defs>
</svg>
